<?xml version="1.0" encoding="UTF-8" standalone="no"?>
<svg
   width="480"
   height="320"
   version="1.1"
   viewBox="0 0 480 320"
   xml:space="preserve"
   id="svg1275"
   sodipodi:docname="Metal Gear.svg"
   inkscape:version="1.2.2 (732a01da63, 2022-12-09)"
   xmlns:inkscape="http://www.inkscape.org/namespaces/inkscape"
   xmlns:sodipodi="http://sodipodi.sourceforge.net/DTD/sodipodi-0.dtd"
   xmlns="http://www.w3.org/2000/svg"
   xmlns:svg="http://www.w3.org/2000/svg"><sodipodi:namedview
     id="namedview1277"
     pagecolor="#ffffff"
     bordercolor="#000000"
     borderopacity="0.25"
     inkscape:showpageshadow="2"
     inkscape:pageopacity="0.0"
     inkscape:pagecheckerboard="0"
     inkscape:deskcolor="#d1d1d1"
     showgrid="false"
     inkscape:zoom="0.90929513"
     inkscape:cx="57.187154"
     inkscape:cy="151.76591"
     inkscape:window-width="1920"
     inkscape:window-height="1009"
     inkscape:window-x="-8"
     inkscape:window-y="-8"
     inkscape:window-maximized="1"
     inkscape:current-layer="svg1275" /><defs
     id="defs1268"><linearGradient
       id="a"
       x1="240"
       x2="240"
       y1="320"
       y2="-95"
       gradientUnits="userSpaceOnUse"><stop
         stop-color="#d40000"
         offset="0"
         id="stop1263"
         style="stop-color:#0000a0;stop-opacity:1;" /><stop
         stop-color="#ff2a7f"
         offset="1"
         id="stop1265"
         style="stop-color:#00ffff;stop-opacity:1;" /></linearGradient><mask
       maskUnits="userSpaceOnUse"
       id="mask3178"><g
         id="g3202"
         transform="matrix(3.1237719,0,0,3.1237719,-117.89372,-330.07166)"
         style="fill:#ffffff;stroke-width:1.20992"><path
           fill="#ffffff"
           opacity="1"
           d="m 72.262071,124.93837 c 0.874888,0.0423 1.749777,0.0282 2.624666,0.0247 0.388056,7.1367 0.691445,14.27692 1.125361,21.41009 0.0035,0.20461 0.01411,0.6103 0.01764,0.81491 0.01411,1.5487 0.179917,3.09386 0.254,4.64609 -0.786694,0 -1.573389,0.0212 -2.360083,-0.0212 -0.151695,-2.24014 -0.465667,-4.46264 -0.543278,-6.70631 -0.433917,0.0141 -0.867833,0.0318 -1.298222,0.0494 -1.658056,-0.0705 -3.312583,-0.0529 -4.967111,-0.067 0.134055,2.25425 0.462139,4.49438 0.515055,6.75569 -1.058333,-0.004 -2.116666,-0.004 -3.174999,-0.0141 -0.310445,-3.12561 -0.606778,-6.25475 -0.892528,-9.38036 -0.359834,-3.21734 -0.617361,-6.44525 -0.973667,-9.66259 -0.09172,-1.63688 -0.342194,-3.25613 -0.419805,-4.89302 1.058333,0 2.113138,-0.007 3.171472,-0.0106 0.01411,3.36198 0.359833,6.70984 0.395111,10.07181 0,0.0494 -0.0071,0.14817 -0.0071,0.19755 2.187222,-0.17638 4.363861,-0.46213 6.551083,-0.62794 l 0.416278,-0.0282 0.02117,-0.10231 c -0.09525,-4.15219 -0.345722,-8.30439 -0.455083,-12.45658 z"
           id="path3180"
           style="fill:#ffffff;stroke-width:0.426835" /><path
           fill="#ffffff"
           opacity="1"
           d="m 137.52596,128.26859 c 2.95628,-0.43392 5.89492,0.32103 8.74889,1.016 1.30528,0.43392 2.62114,0.8502 3.90525,1.34056 -0.11642,0.44802 -0.23283,0.89605 -0.34572,1.34761 -0.24695,0.99836 -0.49389,2.00025 -0.68792,3.01272 -0.067,0.15875 -0.19755,0.47625 -0.26458,0.635 -3.33022,-1.15711 -6.87564,-2.31775 -10.4387,-1.71097 -0.17286,0.81844 0.33514,1.45344 0.97014,1.89794 0.16581,0.11289 0.49036,0.3422 0.65264,0.45861 1.0407,0.68439 2.16959,1.22767 3.33022,1.68275 0.48331,0.19403 0.97367,0.381 1.45345,0.58914 0.69144,0.3422 1.36525,0.71967 2.0073,1.15359 1.12537,0.87841 2.35303,1.91205 2.62114,3.39725 0.33161,1.42169 -0.58561,2.84338 -1.80975,3.51013 -1.9438,1.09362 -4.26155,0.98073 -6.3888,0.62442 -2.39184,-0.76905 -4.63903,-1.97908 -6.55462,-3.60892 0.15523,-0.27163 0.46567,-0.81491 0.62089,-1.08655 2.59292,1.85561 5.83848,3.18205 9.05934,2.34597 0.70908,-0.29986 1.86972,-0.69497 1.4358,-1.70744 -0.67733,-1.42523 -2.28952,-2.08139 -3.64066,-2.71992 -0.75142,-0.33867 -1.52047,-0.64206 -2.29306,-0.91722 -2.45533,-0.87136 -4.93889,-2.16959 -6.38175,-4.42384 -0.67028,-0.9913 -0.64911,-2.29305 -0.32808,-3.4043 0.62441,-1.8662 2.44122,-3.10797 4.32858,-3.43253 z"
           id="path3182"
           style="fill:#ffffff;stroke-width:0.426835" /><path
           fill="#ffffff"
           opacity="1"
           d="m 123.20671,128.92829 0.15875,-0.3175 c 0.8008,1.54516 1.70039,3.03741 2.43064,4.61786 -2.77636,4.06047 -5.40103,8.22325 -8.14917,12.30136 -0.60678,0.87489 -1.21708,1.74625 -1.778,2.64936 -0.98425,-2.05317 -1.97908,-4.10986 -3.10444,-6.09247 -1.59456,-3.21028 -3.21734,-6.40292 -4.81189,-9.6132 1.72861,-0.53622 3.42547,-1.1818 5.18583,-1.62278 1.21356,2.25425 2.62114,4.39562 3.89114,6.61812 0.35983,0.63147 0.72672,1.25941 1.10067,1.88383 1.80622,-3.41842 3.33727,-6.97442 5.07647,-10.42458 z"
           id="path3184"
           style="fill:#ffffff;stroke-width:0.426835" /><path
           fill="#ffffff"
           opacity="1"
           d="m 162.55907,134.67151 c 1.24884,-0.18345 2.49767,-0.36336 3.7465,-0.55034 0.22578,0.47978 0.45156,0.95956 0.68086,1.43934 -2.34597,0.81491 -4.78014,1.32997 -7.12964,2.14136 0.0776,0.21519 0.23284,0.65264 0.30692,0.86783 0.7867,2.53647 1.55222,5.07647 2.33186,7.61295 0.32456,1.2453 0.77611,2.46239 1.01953,3.72886 -1.99319,0.1905 -3.98639,0.40216 -5.94783,0.79375 l -0.0282,-0.20109 c -0.59266,-4.05341 -1.2065,-8.1033 -1.85561,-12.14261 -2.54705,0.39159 -5.12586,0.48684 -7.68702,0.75848 -0.0952,-0.19756 -0.28575,-0.59267 -0.38453,-0.79023 -0.20814,-0.43744 -0.4057,-0.87841 -0.60325,-1.31939 0.23283,-0.0529 0.6985,-0.15522 0.93133,-0.20813 0.0988,-0.0176 0.29281,-0.0529 0.38806,-0.0706 1.98261,-0.0847 3.94405,-0.42686 5.88433,-0.82903 2.78342,-0.39511 5.56683,-0.80433 8.34672,-1.23119 z"
           id="path3186"
           style="fill:#ffffff;stroke-width:0.426835" /><path
           fill="#ffffff"
           opacity="1"
           d="m 80.972154,149.64692 c 0.07408,-0.004 0.22225,-0.004 0.299861,-0.007 1.837972,3.89819 3.806472,7.73289 5.68325,11.61344 0.275166,0.56445 0.536222,1.14653 0.931333,1.64042 3.178528,-4.37445 6.427611,-8.71361 9.42975,-13.21153 l 0.07408,0.0388 c 0.119945,0.10936 0.356306,0.32808 0.47625,0.43744 0.483306,3.36903 0.945445,6.74158 1.464028,10.10708 0.08114,0.93839 0.246944,1.86973 0.384528,2.80459 0.179916,1.85914 0.529166,3.69711 0.716136,5.55978 -1.665109,0.21519 -3.326692,0.45508 -4.98122,0.74436 -0.797277,-3.58775 -1.389944,-7.21784 -2.282472,-10.78089 -2.578805,3.80294 -5.249333,7.54239 -7.888111,11.303 -1.629833,-4.00756 -3.312583,-8.001 -5.147027,-11.91684 -0.910167,2.40948 -1.93675,4.77309 -2.910417,7.16139 -0.105833,0.28575 -0.204611,0.57856 -0.292806,0.87489 -0.613833,-0.381 -1.255888,-0.70555 -1.894416,-1.03716 1.820333,-5.17173 4.099278,-10.16706 5.93725,-15.33173 z"
           id="path3188"
           style="fill:#ffffff;stroke-width:0.426835" /><path
           fill="#ffffff"
           opacity="1"
           d="m 133.87824,150.63823 c 5.09411,2.96333 10.13883,6.01486 15.21883,9.00994 0.86078,0.53975 1.7392,1.05834 2.64584,1.52048 -0.20461,-1.55928 -0.28575,-3.12914 -0.55739,-4.67784 -0.0917,-1.31233 -0.18697,-2.62114 -0.19756,-3.937 0.75142,0.0917 1.50636,0.15875 2.26131,0.21167 0.17286,1.81328 0.36336,3.62303 0.56797,5.43278 0.22578,2.77989 0.58561,5.54919 0.85372,8.32908 -0.007,0.10583 -0.0176,0.31397 -0.0247,0.41628 -0.89959,0.19755 -1.79211,0.41275 -2.68464,0.63147 -0.45508,0.10231 -0.87136,0.0247 -1.25236,-0.22931 -4.61434,-2.65994 -9.27453,-5.23522 -13.86417,-7.94102 0.0106,1.20297 0.11641,2.40241 0.27516,3.5948 0.14112,1.67922 0.35278,3.35492 0.56092,5.02709 -0.78317,-0.004 -1.56986,-0.007 -2.35655,-0.0106 -0.0564,-0.94544 -0.11995,-1.89089 -0.1905,-2.8328 -0.18345,-2.20134 -0.3422,-4.40267 -0.58562,-6.60048 -0.27516,-2.6423 -0.32455,-5.30577 -0.67027,-7.94455 z"
           id="path3190"
           style="fill:#ffffff;stroke-width:0.426835" /><path
           fill="#ffffff"
           opacity="1"
           d="m 124.3109,151.37201 c 1.97556,-0.42334 4.13103,0.0776 5.67267,1.39347 1.03364,0.98072 1.71803,2.2613 2.04611,3.64067 0.0141,0.0988 0.0388,0.28927 0.0529,0.38805 0.26811,2.01789 -0.28575,4.03225 -1.22414,5.80672 -1.79211,2.92453 -5.12233,4.87892 -8.60072,4.55789 -2.60703,-0.4833 -4.76603,-2.56469 -5.30225,-5.16466 -0.85725,-4.72723 2.63878,-9.74373 7.35542,-10.62214 m -2.35303,2.67758 c -1.30528,1.04422 -1.59103,2.95275 -0.76906,4.38503 1.25942,1.80975 4.02873,2.45533 5.75381,0.91722 1.22414,-0.88547 1.47108,-2.52589 1.01247,-3.89467 -0.90311,-2.31069 -4.17689,-3.1115 -5.99722,-1.40758 z"
           id="path3192"
           style="fill:#ffffff;stroke-width:0.426835" /><path
           fill="#ffffff"
           opacity="1"
           d="m 105.31735,153.34403 c 2.06375,-1.2453 4.78719,-1.68275 6.985,-0.52211 1.23472,0.63853 2.11314,1.76742 2.67053,3.01625 0.43391,1.21356 0.49741,2.51531 0.40922,3.79236 -0.7867,4.09575 -4.51909,7.47184 -8.75242,7.48595 -1.27705,-0.22225 -2.58939,-0.61031 -3.54894,-1.53106 -1.64748,-1.41816 -2.31423,-3.7465 -1.98261,-5.85611 0.39511,-2.60703 2.00377,-4.97769 4.21922,-6.38528 m 0.40922,1.62278 c -0.92428,0.55739 -1.01953,1.87678 -1.12536,2.86103 l 0.35278,-0.0952 -0.29281,0.0811 c 0.31397,0.77258 0.72672,1.52047 1.43933,1.98967 0.38806,0.53975 1.15359,0.51505 1.74625,0.67027 2.16606,0.4445 4.39209,-1.80622 3.7465,-3.97933 -0.49036,-2.55764 -4.17688,-3.50308 -5.86669,-1.52753 z"
           id="path3194"
           style="fill:#ffffff;stroke-width:0.426835" /><path
           fill="#feffff"
           opacity="1"
           d="m 145.27,34.1 c 0.61,-6.59 1.15,-13.19 2.01,-19.76 9.47,-0.44 18.97,0.36 28.24,2.36 3.72,0.81 7.41,2.25 10.11,5.04 0.01,1.59 0.03,3.17 0.06,4.76 -2.05,3.27 -4.7,6.12 -7.56,8.68 -1.92,1.78 -4.03,3.36 -5.87,5.23 -0.36,1.35 1.33,1.61 2.11,2.31 1.51,0.91 3.02,1.85 4.51,2.81 7.35,4.58 14.69,9.19 22.16,13.56 -0.7,0.9 -1.42,1.8 -2.13,2.69 -2.01,2.39 -4.09,4.72 -6.06,7.15 -10.66,-6.65 -21.34,-13.27 -31.93,-20.03 -0.62,-0.42 -1.23,-0.85 -1.84,-1.27 -2.71,1.46 -5.58,2.57 -8.55,3.34 -0.89,2.41 -1.18,4.98 -1.35,7.53 -1.13,0.04 -2.25,0.08 -3.37,0.11 -1.07,0.03 -2.15,0.05 -3.23,0.08 0.33,-3.79 0.88,-7.56 1.18,-11.35 0.48,-4.41 0.99,-8.83 1.51,-13.24 m 9.41,-13.73 c -0.44,6.86 -1.97,13.6 -3.02,20.38 5.22,-3.32 10.57,-6.69 14.75,-11.31 1.51,-1.72 3.27,-4.28 1.83,-6.57 -3.68,-3.24 -9.01,-2.62 -13.56,-2.5 z"
           id="path3196"
           style="fill:#ffffff;stroke-width:1.46392"
           transform="matrix(0.35277777,0,0,0.35277777,42.251266,124.44448)" /><path
           fill="#fefefe"
           opacity="1"
           d="m 82.968876,130.18417 c 1.054805,0.0811 2.0955,0.24342 3.129139,0.46214 2.00025,3.59481 3.732389,7.33778 5.785555,10.90084 l 0.211667,0.34572 c -0.225778,0.19403 -0.451556,0.38805 -0.680861,0.57855 -1.118306,0.75848 -2.271889,1.45698 -3.457222,2.09903 -0.85725,-1.94028 -1.799167,-3.84175 -2.596445,-5.80672 -1.132416,-0.59972 -2.497666,-0.28928 -3.728861,-0.44803 -0.92075,2.06022 -1.905,4.09222 -2.751666,6.1842 -0.09525,0.21166 -0.282223,0.63147 -0.373945,0.84314 -0.47625,-0.0141 -0.927805,-0.20462 -1.379361,-0.32456 0.105833,-0.42333 0.211667,-0.84314 0.335139,-1.26294 1.837972,-4.52262 3.732389,-9.02406 5.506861,-13.57137 m 0.162278,3.40784 c -0.338667,1.04069 -0.702028,2.06728 -1.016,3.11503 0.829027,-0.004 1.658055,-0.0106 2.487083,0.0212 -0.479778,-1.04775 -0.786694,-2.19075 -1.471083,-3.13619 z"
           id="path3198"
           style="fill:#ffffff;stroke-width:0.426835" /><path
           fill="#fefefe"
           opacity="1"
           d="m 125.27046,136.24842 c 2.02142,-0.30691 4.03578,-0.63147 6.0713,-0.81844 0.49037,-0.067 0.98073,-0.13758 1.47109,-0.21519 0.004,0.90311 -0.0106,1.80622 0.007,2.70933 -1.09714,0.004 -2.19075,0.13053 -3.27378,0.31397 -0.71614,0.10231 -1.44286,0.1517 -2.16253,0.20814 0.0529,0.70556 0.11289,1.41464 0.16933,2.12019 0.55034,-0.0459 1.1042,-0.0882 1.65453,-0.15169 1.04422,-0.0811 2.08492,-0.17639 3.13267,-0.25753 0.0247,0.74436 0.0952,1.48872 0.24342,2.21897 0.1023,0.67381 0.18344,1.34762 0.26811,2.02495 -1.60867,0.0917 -3.21734,0.1905 -4.82248,0.34925 l 0.004,0.11994 c 0.0317,0.80786 0.18345,1.60161 0.33162,2.39536 1.31586,-0.0847 2.63172,-0.17286 3.937,-0.33866 0.0741,0.41275 0.14463,0.8255 0.21166,1.24178 0.007,0.11288 0.0212,0.33866 0.0247,0.45155 -1.6898,0.33514 -3.39725,0.58914 -5.08,0.97367 -0.4833,-2.62467 -0.87136,-5.26697 -1.27705,-7.90222 -0.30339,-1.81681 -0.50447,-3.64773 -0.91017,-5.44337 z"
           id="path3200"
           style="fill:#ffffff;stroke-width:0.426835" /></g></mask></defs><rect
     id="b"
     width="480"
     height="320"
     ry="24"
     fill="url(#a)"
     x="0"
     y="0"
     inkscape:label="background" /><path
     d="m 275.2,237.7 c -1.76,0 -2.959,1.28 -2.959,3 0,1.68 1.199,2.959 2.959,2.959 1.8,0 2.961,-1.279 2.961,-2.959 0,-1.72 -1.161,-3 -2.961,-3 z m -68.48,1.559 -4.92,0.5215 v 25.32 c 0,3 1.8,4.92 4.68,4.92 1.2,0 2.321,-0.3598 3.041,-0.7598 l -0.9609,-3.359 c -0.2,0.04 -0.5189,0.1602 -0.8789,0.1602 -0.64,0 -0.9609,-0.4802 -0.9609,-1.16 z m 10.76,0 -4.92,0.5215 v 25.32 c 0,3 1.802,4.92 4.682,4.92 1.2,0 2.319,-0.3598 3.039,-0.7598 l -0.9609,-3.359 c -0.2,0.04 -0.5189,0.1602 -0.8789,0.1602 -0.64,0 -0.9609,-0.4802 -0.9609,-1.16 z m -45.6,1.961 c -5.76,0 -10.2,4.52 -10.2,14.32 0,9.92 4.239,14.48 10.2,14.48 3.2,0 5.601,-1.598 7.121,-3.318 l -2.441,-2.801 c -1.24,1.04 -2.438,2.039 -4.318,2.039 -3.12,0 -5.201,-2.638 -5.201,-10.4 0,-7.96 2.161,-10.44 5.121,-10.44 1.6,0 2.838,0.6809 4.158,1.881 l 2.441,-2.92 c -1.92,-1.8 -3.961,-2.84 -6.881,-2.84 z m 92.72,1.76 -4.92,0.5996 v 4.68 h -2.48 v 3.561 h 2.48 v 12.32 c 0,3.48 1.839,5.879 5.639,5.879 1.64,0 3.282,-0.5186 4.602,-1.559 l -1.721,-3.041 c -0.72,0.4 -1.199,0.6406 -1.959,0.6406 -1.12,0 -1.641,-0.7199 -1.641,-1.92 v -12.32 h 3.52 l 0.4805,-3.561 h -4 z m -75.48,4.721 c -5.24,0 -8.439,3.879 -8.439,11.12 0,7.28 3.199,11.2 8.439,11.2 5.24,0 8.439,-4.159 8.439,-11.2 0,-7.52 -3.199,-11.12 -8.439,-11.12 z m 41.4,0 c -5.28,0 -8.121,4.438 -8.121,11.32 0,6.96 3.042,11 8.602,11 2.84,0 5.039,-1.079 6.719,-2.719 l -2.039,-2.801 c -1.48,1.2 -2.72,1.76 -4.4,1.76 -2.2,0 -3.68,-1.239 -3.92,-5.879 h 10.92 c 0.04,-0.56 0.1191,-1.361 0.1191,-2.041 0,-7.12 -2.999,-10.64 -7.879,-10.64 z m 19.72,0 c -5.16,0 -8.521,4.158 -8.521,11.32 0,7.4 3.28,11 8.6,11 2.28,0 4.161,-0.9594 5.721,-2.439 l -2.199,-2.84 c -1.16,0.84 -2.041,1.32 -3.281,1.32 -2.16,0 -3.639,-1.561 -3.639,-7.121 0,-5.6 1.359,-7.439 3.639,-7.439 1.24,0 2.241,0.4804 3.361,1.4 l 2.119,-2.801 c -1.68,-1.64 -3.479,-2.398 -5.799,-2.398 z m 40.32,0 c -5.24,0 -8.439,3.879 -8.439,11.12 0,7.28 3.199,11.2 8.439,11.2 5.24,0 8.441,-4.159 8.441,-11.2 0,-7.52 -3.201,-11.12 -8.441,-11.12 z m 22.76,0 c -2.4,0 -3.878,1.238 -5.238,3.318 l -0.3613,-2.76 h -4.279 v 21.16 h 4.92 v -14.8 c 1,-1.92 2.12,-3.16 3.32,-3.16 1.04,0 1.639,0.7598 1.639,2.84 v 15.12 h 4.92 v -15.68 c 0,-3.68 -1.88,-6.039 -4.92,-6.039 z m -40.56,0.5586 v 21.16 h 4.92 v -21.16 z m -42.2,2.881 c 2.16,0 3.041,1.76 3.041,5.76 v 0.2793 h -6.24 c 0.2,-4.68 1.359,-6.039 3.199,-6.039 z m -41.44,0.2793 c 2.2,0 3.32,1.88 3.32,7.4 0,5.52 -1.12,7.439 -3.32,7.439 -2.2,0 -3.32,-1.879 -3.32,-7.439 0,-5.48 1.12,-7.4 3.32,-7.4 z m 101.4,0 c 2.2,0 3.32,1.88 3.32,7.4 0,5.52 -1.12,7.439 -3.32,7.439 -2.2,0 -3.318,-1.879 -3.318,-7.439 0,-5.48 1.118,-7.4 3.318,-7.4 z"
     fill="#ffffff"
     id="path1271"
     sodipodi:insensitive="true"
     inkscape:label="collection" /><rect
     style="display:none;opacity:0.5;fill:#ffffff;fill-opacity:1;stroke:none;stroke-width:1;stroke-dasharray:none;stroke-opacity:1"
     id="rect2594"
     width="328.599"
     height="160.008"
     x="75.711754"
     y="59.994556"
     inkscape:label="logo area" /><g
     id="g513"
     transform="matrix(1.4083619,0,0,1.4083619,11.110194,72.927049)"
     style="stroke-width:0.946726;fill:#ffffff;fill-opacity:1;stroke:none"><path
       fill="#000000"
       opacity="1"
       d="m 64.35,22.36 c 3.74,0.05 7.51,-0.29 11.24,0.18 2.66,1.67 0.13,5.45 0.12,7.95 1.71,-2.65 3.29,-5.37 4.85,-8.11 3.69,0.01 7.41,-0.31 11.07,0.19 1.78,1.44 0.81,3.8 0.54,5.68 -2.45,10.68 -4.95,21.36 -7.27,32.07 -2.89,0.03 -5.79,0.05 -8.68,0.05 2.25,-9.7 4.8,-19.34 6.71,-29.11 -2.48,-0.1 -4.96,-0.13 -7.44,-0.13 -2.08,9.76 -4.23,19.5 -6.46,29.23 -2.72,0 -5.44,0 -8.15,-0.01 2.16,-9.71 4.69,-19.35 6.41,-29.15 -2.52,-0.05 -5.04,-0.08 -7.56,-0.1 -2.16,9.74 -4.14,19.52 -6.27,29.27 -2.53,-0.01 -5.06,-0.02 -7.59,-0.02 2,-9.64 4.42,-19.2 6.13,-28.89 -0.67,-0.21 -1.99,-0.62 -2.65,-0.83 1.42,-2.78 2.83,-5.58 4.31,-8.34 2.62,0.04 5.25,0.06 7.88,0.11 -0.53,2.52 -1.1,5.03 -1.55,7.56 1.55,-2.48 2.94,-5.05 4.36,-7.6 z"
       id="path4"
       style="stroke-width:0.896291;fill:#ffffff;fill-opacity:1;stroke:none" /><path
       fill="#000000"
       opacity="1"
       d="m 93.02,35.33 c 1.34,-2.14 2.66,-4.28 3.99,-6.42 6.29,-0.01 12.59,-0.01 18.88,-0.01 -1.26,2.21 -2.55,4.4 -3.84,6.59 -3.12,0 -6.24,0 -9.36,0.01 -0.81,3.68 -1.72,7.34 -2.46,11.04 1.25,-1.84 2.43,-3.73 3.6,-5.62 2.72,0.01 5.44,0.01 8.16,0.01 -1.25,2.21 -2.49,4.41 -3.74,6.62 -2.79,0.01 -5.58,0.02 -8.37,0.04 -0.34,1.8 -0.67,3.6 -0.99,5.4 3.74,0.1 7.49,0.09 11.24,0.13 -1.29,2.42 -2.59,4.84 -3.91,7.25 -5.63,-0.02 -11.26,-0.03 -16.89,0.01 1.92,-8.21 3.85,-16.41 5.78,-24.62 -0.53,-0.11 -1.57,-0.33 -2.09,-0.43 z"
       id="path6"
       style="stroke-width:0.896291;fill:#ffffff;fill-opacity:1;stroke:none" /><path
       fill="#000000"
       opacity="1"
       d="m 114.46,35.82 c 1.46,-2.23 2.34,-5.09 4.47,-6.75 5.91,-0.45 11.85,-0.04 17.77,-0.15 -1.18,2.33 -2.4,4.65 -3.64,6.96 -1.47,-0.05 -2.93,-0.09 -4.39,-0.13 -2.22,8.18 -4.14,16.43 -6.33,24.61 -2.34,0 -4.68,0.01 -7.01,0.02 2.12,-8.18 4.14,-16.38 6.24,-24.57 -2.37,0 -4.74,0.01 -7.11,0.01 z"
       id="path8"
       style="stroke-width:0.896291;fill:#ffffff;fill-opacity:1;stroke:none" /><path
       fill="#000000"
       opacity="1"
       d="m 139.35,29.14 c 3.57,-0.5 7.19,-0.19 10.78,-0.22 0.08,10.47 0.38,20.94 0.49,31.42 -2.4,0.01 -4.81,0.03 -7.21,0.05 0.03,-1.9 0.07,-3.8 0.09,-5.7 -2.63,-0.01 -5.27,-0.01 -7.9,-0.03 -0.87,1.89 -1.73,3.79 -2.58,5.69 -2.33,0.01 -4.65,0.01 -6.98,0.02 3.93,-7.99 7.76,-16.03 11.74,-23.98 -0.51,-0.22 -1.54,-0.65 -2.05,-0.87 1.17,-2.14 2.19,-4.39 3.62,-6.38 m -2.46,22.84 c 0.85,-1.09 1.69,-2.19 2.53,-3.3 1.41,-0.02 2.83,-0.04 4.25,-0.06 0.12,-4.26 0.37,-8.51 0.38,-12.77 -2.74,5.21 -5.06,10.64 -7.16,16.13 z"
       id="path10"
       style="stroke-width:0.896291;fill:#ffffff;fill-opacity:1;stroke:none" /><path
       fill="#000000"
       opacity="1"
       d="m 159.94,28.88 c 2.33,0.01 4.66,0.02 6.99,0.04 -1.84,8.24 -3.9,16.43 -5.88,24.64 3.33,0.03 6.67,0.03 10,0.07 -1.38,2.24 -2.75,4.48 -4.11,6.72 -5,0.01 -10.01,0.02 -15.01,-0.02 2.09,-8.01 4.13,-16.03 6.15,-24.06 -0.53,-0.11 -1.59,-0.33 -2.11,-0.44 1.3,-2.33 2.62,-4.65 3.97,-6.95 z"
       id="path12"
       style="stroke-width:0.896291;fill:#ffffff;fill-opacity:1;stroke:none" /><path
       fill="#000000"
       opacity="1"
       d="m 187.52,39.38 c 0.73,-2.15 0.62,-5.77 3.48,-6.17 6.6,-0.79 13.28,-0.14 19.92,-0.34 -1.33,2.21 -2.35,4.7 -4.2,6.54 -3.93,0.32 -7.88,0.03 -11.81,0.18 -1.38,5.88 -2.63,11.79 -3.94,17.69 2.05,0.08 4.09,0.15 6.15,0.21 0.57,-1.97 1.14,-3.93 1.71,-5.89 -0.87,-0.02 -2.61,-0.07 -3.48,-0.09 1.3,-2.11 2.45,-4.36 4.03,-6.29 2.79,-0.54 5.65,-0.3 8.47,-0.34 -1.37,5.6 -2.45,11.31 -4.35,16.76 -0.54,1.95 -2.53,2.93 -4.44,2.8 -5.64,0.08 -11.32,0.38 -16.9,-0.51 0.71,-8.38 3.77,-16.33 5.36,-24.55 z"
       id="path14"
       style="stroke-width:0.896291;fill:#ffffff;fill-opacity:1;stroke:none" /><path
       fill="#000000"
       opacity="1"
       d="m 213.26,32.91 c 6.31,-0.07 12.62,-0.04 18.93,-0.02 -1.28,2.23 -2.58,4.43 -3.89,6.63 -3.1,0 -6.2,0 -9.3,0.01 -0.85,3.63 -1.76,7.26 -2.49,10.92 1.25,-1.84 2.44,-3.72 3.62,-5.6 2.73,-0.01 5.46,-0.01 8.19,0 -1.27,2.25 -2.55,4.5 -3.84,6.74 -2.79,-0.02 -5.57,-0.03 -8.36,-0.01 -0.31,1.83 -0.62,3.67 -0.9,5.51 3.72,0.03 7.44,0.02 11.17,0.03 -1.27,2.44 -2.55,4.86 -3.79,7.31 -5.68,0.11 -11.37,0.06 -17.05,0.04 1.96,-7.94 3.66,-15.94 5.72,-23.86 -0.46,-0.63 -0.92,-1.26 -1.38,-1.89 1.14,-1.92 2.26,-3.86 3.37,-5.81 z"
       id="path16"
       style="stroke-width:0.896291;fill:#ffffff;fill-opacity:1;stroke:none" /><path
       fill="#000000"
       opacity="1"
       d="m 238.27,33.16 c 3.59,-0.58 7.24,-0.24 10.86,-0.28 0.18,10.53 0.2,21.06 0.27,31.59 -2.41,0.01 -4.81,0.01 -7.22,0.01 0.06,-1.9 0.11,-3.79 0.17,-5.68 -2.67,0.01 -5.35,0.03 -8.02,0.09 -0.8,1.86 -1.6,3.72 -2.39,5.59 -2.35,0 -4.69,-0.01 -7.03,-0.02 3.99,-7.97 7.68,-16.09 11.84,-23.97 -0.7,-0.33 -1.41,-0.66 -2.1,-0.99 1.18,-2.13 2.18,-4.37 3.62,-6.34 m -2.73,22.6 c 1.81,-2.3 4.21,-3.7 7.2,-3.42 0.01,-4.13 0.12,-8.25 0.04,-12.38 -2.62,5.17 -4.61,10.63 -7.24,15.8 z"
       id="path18"
       style="stroke-width:0.896291;fill:#ffffff;fill-opacity:1;stroke:none" /><path
       fill="#000000"
       opacity="1"
       d="m 258.24,33.15 c 2.26,-0.41 4.57,-0.28 6.86,-0.34 -0.33,2.04 -0.66,4.07 -0.96,6.12 1.3,-2 2.52,-4.03 3.77,-6.06 3.73,0.24 7.9,-0.85 11.28,1.17 -0.8,5.22 -2.24,10.35 -3.74,15.4 -0.61,2.38 -3.54,1.72 -5.36,2.16 2.26,7.01 4.26,14.1 6.43,21.14 -2.85,0.06 -5.69,0.15 -8.54,0.22 -2.21,-7 -4.38,-14.01 -6.47,-21.05 -1.04,4.15 -1.86,8.34 -2.67,12.53 -2.66,0.04 -5.32,0.05 -7.98,0.04 2.01,-8.05 3.82,-16.14 5.89,-24.16 -0.65,-0.03 -1.95,-0.08 -2.6,-0.11 1.32,-2.37 2.44,-4.88 4.09,-7.06 m 5.58,6.97 c -0.79,3.57 -1.58,7.14 -2.22,10.75 1.33,-1.8 2.57,-3.65 3.8,-5.51 1.24,-0.02 2.47,-0.03 3.71,-0.05 0.51,-1.72 1.02,-3.44 1.52,-5.16 -2.27,-0.02 -4.54,-0.02 -6.81,-0.03 z"
       id="path20"
       style="stroke-width:0.896291;fill:#ffffff;fill-opacity:1;stroke:none" /></g></svg>
